<?xml version="1.0" encoding="UTF-8"?>
<svg xmlns="http://www.w3.org/2000/svg" xmlns:xlink="http://www.w3.org/1999/xlink" width="2405px" height="840px" viewBox="0 0 1875 655" version="1.1">
<g id="surface1">
<path style=" stroke:none;fill-rule:nonzero;fill:rgb(3.529412%,18.039216%,12.54902%);fill-opacity:1;" d="M 221.417969 0 L 323.90625 0 L 323.90625 474.578125 C 271.332031 484.566406 232.730469 488.566406 190.804688 488.566406 C 65.679688 488.554688 0.464844 431.972656 0.464844 323.445312 C 0.464844 218.917969 69.679688 151.015625 176.824219 151.015625 C 193.460938 151.015625 206.105469 152.34375 221.417969 156.339844 Z M 221.417969 238.886719 C 209.441406 234.898438 199.457031 233.566406 186.8125 233.566406 C 134.902344 233.566406 104.949219 265.523438 104.949219 321.445312 C 104.949219 376.042969 133.566406 406 186.144531 406 C 197.457031 406 206.78125 405.339844 221.417969 403.34375 Z M 221.417969 238.886719 "/>
<path style=" stroke:none;fill-rule:nonzero;fill:rgb(3.529412%,18.039216%,12.54902%);fill-opacity:1;" d="M 486.953125 158.332031 L 486.953125 396.011719 C 486.953125 477.902344 480.957031 517.1875 462.992188 551.136719 C 446.351562 583.765625 424.386719 604.398438 379.136719 627.042969 L 283.964844 581.769531 C 329.222656 560.464844 351.183594 541.828125 365.15625 513.1875 C 379.800781 483.898438 384.464844 449.941406 384.464844 360.730469 L 384.464844 158.332031 Z M 384.464844 0.546875 L 486.953125 0.546875 L 486.953125 105.738281 L 384.464844 105.738281 Z M 548.855469 181.636719 C 594.117188 160.335938 637.375 151.015625 684.628906 151.015625 C 737.203125 151.015625 771.804688 164.992188 787.117188 192.289062 C 795.765625 207.605469 798.425781 227.574219 798.425781 270.191406 L 798.425781 478.570312 C 752.5 485.226562 694.601562 489.894531 652.011719 489.894531 C 566.160156 489.894531 527.558594 459.921875 527.558594 393.347656 C 527.558594 321.4375 578.804688 288.152344 704.582031 277.496094 L 704.582031 254.859375 C 704.582031 236.21875 695.269531 229.566406 669.308594 229.566406 C 631.378906 229.566406 588.785156 240.21875 548.847656 260.863281 Z M 709.25 344.75 C 641.363281 351.410156 619.402344 362.058594 619.402344 388.691406 C 619.402344 408.660156 632.046875 417.980469 660 417.980469 C 675.308594 417.980469 689.277344 416.652344 709.246094 413.324219 Z M 848.34375 174.3125 C 908.902344 158.332031 958.816406 151.015625 1009.398438 151.015625 C 1061.972656 151.015625 1099.910156 162.992188 1122.542969 186.300781 C 1143.839844 208.261719 1150.488281 232.230469 1150.488281 283.503906 L 1150.488281 484.5625 L 1048 484.5625 L 1048 287.496094 C 1048 248.222656 1034.691406 233.566406 998.089844 233.566406 C 984.113281 233.566406 971.46875 234.898438 950.832031 240.890625 L 950.832031 484.5625 L 848.34375 484.5625 Z M 1190.332031 540.488281 C 1226.277344 559.128906 1262.210938 567.777344 1300.144531 567.777344 C 1367.347656 567.777344 1395.96875 540.488281 1395.96875 475.234375 L 1395.96875 473.238281 C 1376.011719 483.222656 1356.039062 487.21875 1329.425781 487.21875 C 1239.578125 487.21875 1182.332031 427.964844 1182.332031 334.101562 C 1182.332031 217.582031 1266.863281 151.671875 1416.59375 151.671875 C 1460.523438 151.671875 1501.121094 156.328125 1550.367188 166.316406 L 1515.277344 240.269531 C 1487.992188 234.945312 1513.089844 239.558594 1492.46875 237.558594 L 1492.46875 248.214844 L 1493.792969 291.484375 L 1494.457031 347.414062 C 1495.121094 361.390625 1495.121094 375.375 1495.789062 389.355469 L 1495.789062 417.324219 C 1495.789062 505.203125 1488.472656 546.476562 1466.511719 580.433594 C 1434.566406 630.371094 1379.324219 655 1300.796875 655 C 1260.863281 655 1226.269531 649.007812 1190.324219 635.03125 Z M 1393.984375 234.234375 L 1383.339844 234.234375 C 1363.378906 233.566406 1340.089844 238.886719 1324.105469 248.871094 C 1299.488281 262.859375 1286.832031 288.160156 1286.832031 324.109375 C 1286.832031 375.378906 1312.132812 404.671875 1357.386719 404.671875 C 1371.359375 404.671875 1382.675781 402.003906 1395.980469 398.011719 L 1395.980469 362.726562 C 1395.980469 350.742188 1395.324219 337.417969 1395.324219 323.445312 L 1394.660156 276.179688 L 1393.992188 242.226562 Z M 1709.484375 149.679688 C 1811.972656 149.679688 1874.535156 214.265625 1874.535156 318.785156 C 1874.535156 425.980469 1809.320312 493.226562 1705.492188 493.226562 C 1602.996094 493.226562 1539.769531 428.640625 1539.769531 324.78125 C 1539.777344 216.917969 1605 149.679688 1709.484375 149.679688 Z M 1707.480469 410.660156 C 1746.746094 410.660156 1770.042969 378.035156 1770.042969 321.445312 C 1770.042969 265.523438 1747.410156 232.234375 1708.152344 232.234375 C 1667.550781 232.234375 1644.253906 264.863281 1644.253906 321.445312 C 1644.261719 378.042969 1667.554688 410.660156 1707.480469 410.660156 Z M 1707.480469 410.660156 "/>
</g>
</svg>
